<?xml version="1.0" encoding="utf-8"?>
<svg viewBox="0 0 500 500" xmlns="http://www.w3.org/2000/svg">
  <defs/>
  <path fill="black" d="M 446.152 173.604 L 294.276 16.724 L 124.672 14.812 C 90.306 14.812 62.451 42.592 62.451 76.867 L 62.451 407.835 C 62.451 442.111 90.306 469.89 124.672 469.89 L 383.929 469.89 C 418.297 469.89 446.152 442.111 446.152 407.835 L 446.152 173.604 Z" style=""/>
  <path fill="#AFE0EC" d="M 415.04 180.296 L 269.857 35.496 L 145.413 35.496 C 111.046 35.496 83.192 63.278 83.192 97.554 L 83.192 387.15 C 83.192 421.423 111.046 449.206 145.413 449.206 L 352.818 449.206 C 387.185 449.206 415.04 421.423 415.04 387.15 L 415.04 180.296 Z" style=""/>
  <path fill="black" d="M 436.883 193.506 L 300.012 194.462 C 277.092 194.462 255.661 168.3 255.661 145.443 L 252.793 24.198 L 436.883 193.506 Z M 176.524 211.323 L 218.006 211.323 C 241.96 211.323 256.914 185.468 244.948 164.781 C 239.389 155.182 229.122 149.267 218.006 149.267 L 176.524 149.267 C 152.569 149.267 137.615 175.124 149.581 195.809 C 155.14 205.406 165.406 211.323 176.524 211.323 Z M 257.528 270.245 L 244.869 261.611 L 233.835 258.16 C 224.979 250.196 195.377 281.033 187.931 290.321 L 146.451 342.034 C 142.861 351.178 149.679 366.893 159.35 375.462 C 171.288 386.04 201.717 386.75 203.722 376.493 L 234.865 346.676 L 247.314 359.364 C 256.897 368.404 278.022 364.42 284.909 353.208 L 343.416 273.497 C 357.665 256.815 333.088 235.353 327.246 232.151 C 317.374 226.74 296.974 228.938 288.18 235.95 C 286.736 235.328 255.051 280.358 257.528 270.245 Z" style=""/>
  <path fill="white" d="M 415.04 180.296 L 311.339 180.296 C 288.419 180.296 269.857 161.782 269.857 138.925 L 269.857 35.496 L 415.04 180.296 Z M 186.894 200.98 L 207.635 200.98 C 223.605 200.98 233.582 183.751 225.596 169.953 C 221.884 163.559 215.04 159.609 207.635 159.609 L 186.894 159.609 C 170.924 159.609 160.949 176.841 168.932 190.638 C 172.644 197.03 179.489 200.98 186.894 200.98 Z M 294.954 250.336 L 260.253 294.85 L 242.25 278.696 C 233.394 270.731 219.623 271.85 212.176 281.158 L 170.695 332.871 C 160.678 345.261 167.875 363.816 183.659 366.278 C 191.021 367.415 198.447 364.52 203.093 358.705 L 230.845 324.101 L 249.075 340.462 C 258.014 348.508 271.929 347.267 279.313 337.793 L 327.721 275.737 C 337.512 263.16 329.985 244.731 314.178 242.538 C 306.837 241.524 299.516 244.503 294.954 250.336 Z" style=""/>
</svg>